<svg width="193.8" height="70.8" viewBox="0 0 193.8 70.8" xmlns="http://www.w3.org/2000/svg"><g id="svgGroup" stroke-linecap="round" fill-rule="evenodd" font-size="9pt" stroke="#000" stroke-width="0.25mm" fill="#000" style="stroke:#000;stroke-width:0.25mm;fill:#000"><path d="M 71.4 50.5 L 76.9 0.1 L 84.2 0 A 11.79 11.79 0 0 1 85.252 0.044 Q 85.782 0.092 86.225 0.191 A 4.687 4.687 0 0 1 87.05 0.45 A 2.387 2.387 0 0 1 87.66 0.85 Q 88.201 1.318 88.801 2.218 A 15.833 15.833 0 0 1 89.4 3.2 Q 94.2 11.6 99.8 19.85 A 23830.015 23830.015 0 0 0 107.919 31.803 A 20656.484 20656.484 0 0 0 110.5 35.6 Q 115.062 42.309 118.184 47.978 A 105.467 105.467 0 0 1 118.9 49.3 L 116.3 52.4 L 118.5 30.9 Q 119.253 23.653 119.253 19.063 A 52.968 52.968 0 0 0 119.25 18.5 Q 119.209 14.626 118.896 12.145 A 23.592 23.592 0 0 0 118.75 11.15 Q 118.3 8.5 117.85 7 Q 117.4 5.5 117.4 4.2 A 1.922 1.922 0 0 1 117.873 2.943 A 3.09 3.09 0 0 1 118.4 2.45 Q 119.4 1.7 120.9 1.2 A 20.507 20.507 0 0 1 123.396 0.534 A 18.475 18.475 0 0 1 123.85 0.45 Q 124.899 0.269 125.712 0.219 A 9.599 9.599 0 0 1 126.3 0.2 A 2.899 2.899 0 0 1 128.663 1.349 A 4.733 4.733 0 0 1 129.2 2.2 A 9.631 9.631 0 0 1 130.009 4.45 A 8.167 8.167 0 0 1 130.2 6.2 Q 130.2 7.661 129.942 9.491 A 35.264 35.264 0 0 1 129.85 10.1 Q 129.5 12.3 129 17.2 L 127.6 30.4 Q 126.705 38.809 126.331 44.457 A 174.34 174.34 0 0 0 126.25 45.75 Q 125.9 51.7 125.9 55.2 Q 125.9 58.331 126.02 60.422 A 44.73 44.73 0 0 0 126.05 60.9 Q 126.2 63.1 126.2 65 A 2.39 2.39 0 0 1 125.892 66.15 Q 125.699 66.506 125.386 66.856 A 5.235 5.235 0 0 1 125.1 67.15 A 9.03 9.03 0 0 1 123.763 68.194 A 12.469 12.469 0 0 1 122.3 69 A 22.882 22.882 0 0 1 120.214 69.863 A 19.045 19.045 0 0 1 119 70.25 A 15.305 15.305 0 0 1 117.959 70.506 Q 117.022 70.7 116.3 70.7 A 1.761 1.761 0 0 1 115.205 70.312 Q 114.959 70.124 114.734 69.843 A 3.593 3.593 0 0 1 114.7 69.8 A 2.745 2.745 0 0 1 114.222 68.812 Q 114.052 68.175 114.097 67.35 A 6.74 6.74 0 0 1 114.1 67.3 A 3.677 3.677 0 0 0 114.111 67.018 Q 114.111 65.81 113.381 64.025 A 16.462 16.462 0 0 0 113.35 63.95 A 63.548 63.548 0 0 0 111.999 60.926 A 74.094 74.094 0 0 0 111.4 59.7 Q 110.3 57.5 109.3 55.9 Q 106.125 50.145 101.424 43.505 A 179.982 179.982 0 0 0 101.35 43.4 Q 96.6 36.7 91.6 29.4 Q 86.6 22.1 82.6 14.6 L 84 14.4 L 81.3 40.3 Q 80.674 46.472 80.528 50.684 A 79.273 79.273 0 0 0 80.5 51.65 A 102.13 102.13 0 0 0 80.481 52.734 Q 80.448 55.549 80.593 57.541 A 27.617 27.617 0 0 0 80.7 58.7 Q 81 61.3 81.4 62.7 A 34.354 34.354 0 0 0 81.645 63.521 Q 81.777 63.942 81.902 64.298 A 13.742 13.742 0 0 0 82.15 64.949 A 4.709 4.709 0 0 1 82.491 66.491 A 5.523 5.523 0 0 1 82.5 66.8 A 1.942 1.942 0 0 1 81.931 68.174 A 3.212 3.212 0 0 1 81.35 68.65 Q 80.2 69.4 78.55 69.9 A 19.819 19.819 0 0 1 75.701 70.545 A 18.024 18.024 0 0 1 75.3 70.6 Q 73.7 70.8 72.8 70.8 A 3.384 3.384 0 0 1 72.775 70.8 Q 71.387 70.79 70.836 69.638 A 2.925 2.925 0 0 1 70.7 69.3 Q 70.268 68.005 70.209 66.263 A 16.633 16.633 0 0 1 70.2 65.7 A 69.047 69.047 0 0 1 70.356 61.149 A 83.392 83.392 0 0 1 70.6 58.25 Q 71 54.3 71.4 50.5 Z M 166.9 16.1 L 173.6 9.2 A 62.65 62.65 0 0 1 176.659 6.195 Q 179.131 3.938 181.35 2.5 A 15.667 15.667 0 0 1 184.336 0.969 A 11.459 11.459 0 0 1 188.4 0.2 Q 191.123 0.2 192.341 1.28 A 2.815 2.815 0 0 1 192.65 1.6 Q 193.8 3 193.8 5.6 A 16.606 16.606 0 0 1 193.631 8.023 A 12.991 12.991 0 0 1 193.2 9.95 A 12.773 12.773 0 0 1 192.73 11.242 Q 192.461 11.867 192.148 12.37 A 5.991 5.991 0 0 1 191.7 13 A 4.11 4.11 0 0 1 191.171 13.544 Q 190.851 13.813 190.52 13.952 A 1.848 1.848 0 0 1 189.8 14.1 Q 188.949 14.1 187.882 13.847 A 13.082 13.082 0 0 1 187.5 13.75 Q 186.2 13.4 184.4 13.4 A 5.306 5.306 0 0 0 183.293 13.524 Q 182.778 13.634 182.218 13.842 A 10.276 10.276 0 0 0 181.7 14.05 Q 180.267 14.671 178.286 16.342 A 30.786 30.786 0 0 0 178.1 16.5 Q 176 18.3 172.8 22 L 161.9 34.5 L 163.7 27.8 A 89.795 89.795 0 0 0 167.985 37.636 A 74.218 74.218 0 0 0 170.95 42.9 A 127.675 127.675 0 0 0 173.999 47.602 Q 175.554 49.882 177.041 51.811 A 65.827 65.827 0 0 0 178.8 54 A 155.563 155.563 0 0 0 180.5 55.99 Q 182.808 58.642 184.081 59.793 A 13.037 13.037 0 0 0 184.2 59.9 Q 186.087 61.459 187.335 62.244 A 11.069 11.069 0 0 0 187.85 62.55 Q 189.093 63.241 189.7 63.55 A 15.588 15.588 0 0 0 189.8 63.6 A 1.026 1.026 0 0 1 190.365 64.341 A 1.71 1.71 0 0 1 190.4 64.7 A 1.546 1.546 0 0 1 190.213 65.411 Q 189.957 65.908 189.351 66.433 A 6.716 6.716 0 0 1 189.15 66.6 A 11.635 11.635 0 0 1 187.932 67.446 Q 187.069 67.972 186 68.45 Q 184.1 69.3 182.05 69.8 A 19.828 19.828 0 0 1 180.4 70.133 Q 179.325 70.3 178.4 70.3 A 3.987 3.987 0 0 1 176.913 69.985 Q 175.697 69.496 174.287 68.246 A 17.745 17.745 0 0 1 173.75 67.75 A 31.822 31.822 0 0 1 171.72 65.591 Q 170.645 64.343 169.523 62.829 A 65.53 65.53 0 0 1 168.15 60.9 Q 165.2 56.6 162.15 51.3 Q 159.1 46 156.2 40.5 Q 155.7 39.4 155.15 38.2 Q 154.6 37 154.6 35.6 A 8.597 8.597 0 0 1 154.72 34.227 Q 154.832 33.537 155.049 32.76 A 19.567 19.567 0 0 1 155.45 31.5 Q 156.218 29.332 158.414 26.103 A 55.877 55.877 0 0 1 158.9 25.4 Q 161.5 21.7 166.9 16.1 Z M 0.9 51 L 6.1 0.1 L 14.1 0.1 A 5.957 5.957 0 0 1 15.361 0.222 Q 17.366 0.658 17.6 2.65 Q 17.863 4.886 17.357 9.853 A 114.524 114.524 0 0 1 17.2 11.3 L 12.6 53.7 Q 12.4 55.8 12.4 57.9 Q 12.4 60 12.7 62.1 L 34.2 57.1 Q 35.107 56.935 35.674 56.804 A 12.894 12.894 0 0 0 35.9 56.75 Q 36.374 56.632 36.661 56.607 A 1.622 1.622 0 0 1 36.8 56.6 A 1.459 1.459 0 0 1 37.31 56.682 Q 37.952 56.921 37.997 57.857 A 3.018 3.018 0 0 1 38 58 A 16.306 16.306 0 0 1 37.598 61.532 A 19.869 19.869 0 0 1 37.15 63.2 Q 36.3 65.9 34.8 67.75 A 5.352 5.352 0 0 1 33.521 68.913 A 4.419 4.419 0 0 1 31.1 69.6 L 28.1 69.6 A 325.593 325.593 0 0 0 24.522 69.619 Q 20.131 69.667 16.883 69.84 A 104.761 104.761 0 0 0 15.85 69.9 Q 11.1 70.2 8.3 70.5 A 68.062 68.062 0 0 1 6.493 70.671 Q 4.881 70.8 3.7 70.8 A 2.555 2.555 0 0 1 1.646 69.784 Q 1.328 69.395 1.067 68.856 A 6.524 6.524 0 0 1 0.95 68.6 A 11.619 11.619 0 0 1 0.075 65.179 A 14.242 14.242 0 0 1 0 63.7 A 52.169 52.169 0 0 1 0.056 61.444 Q 0.207 58.005 0.763 52.362 A 368.637 368.637 0 0 1 0.9 51 Z M 55.8 70.4 L 48.8 70.4 A 2.576 2.576 0 0 1 46.807 69.522 A 3.448 3.448 0 0 1 46.55 69.2 A 6.627 6.627 0 0 1 45.852 67.921 Q 45.513 67.109 45.3 66.1 Q 44.9 64.2 44.9 62.3 A 61.301 61.301 0 0 1 45.283 55.355 A 55.564 55.564 0 0 1 45.4 54.4 Q 45.9 50.6 46.3 46.2 L 51.1 0.1 L 58.1 0.1 A 5.339 5.339 0 0 1 59.358 0.238 Q 60.24 0.452 60.823 0.998 A 3.138 3.138 0 0 1 61.55 2.05 Q 62.4 4 62.4 6.7 A 49.573 49.573 0 0 1 62.356 8.84 Q 62.312 9.847 62.226 10.746 A 29.782 29.782 0 0 1 62.2 11 Q 62.063 12.306 61.854 13.991 A 279.635 279.635 0 0 1 61.65 15.6 Q 61.382 17.667 61.026 20.907 A 613.972 613.972 0 0 0 60.8 23 L 55.8 70.4 Z M 147.6 70.4 L 140.6 70.4 A 2.576 2.576 0 0 1 138.607 69.522 A 3.448 3.448 0 0 1 138.35 69.2 A 6.627 6.627 0 0 1 137.652 67.921 Q 137.313 67.109 137.1 66.1 Q 136.7 64.2 136.7 62.3 A 61.301 61.301 0 0 1 137.083 55.355 A 55.564 55.564 0 0 1 137.2 54.4 Q 137.7 50.6 138.1 46.2 L 142.9 0.1 L 149.9 0.1 A 5.339 5.339 0 0 1 151.158 0.238 Q 152.04 0.452 152.623 0.998 A 3.138 3.138 0 0 1 153.35 2.05 Q 154.2 4 154.2 6.7 A 49.573 49.573 0 0 1 154.156 8.84 Q 154.112 9.847 154.026 10.746 A 29.782 29.782 0 0 1 154 11 Q 153.863 12.306 153.654 13.991 A 279.635 279.635 0 0 1 153.45 15.6 Q 153.182 17.667 152.826 20.907 A 613.972 613.972 0 0 0 152.6 23 L 147.6 70.4 Z" vector-effect="non-scaling-stroke"/></g></svg>